<mxfile host="app.diagrams.net" modified="2023-07-10T12:03:40.184Z" agent="Mozilla/5.0 (Windows NT 10.0; Win64; x64) AppleWebKit/537.36 (KHTML, like Gecko) Chrome/114.0.0.0 Safari/537.36" etag="bUKf10efpgt78HR08faO" version="21.6.1" type="device">
  <diagram name="Page-1" id="1YRHAizjSWOm0qdDqU5r">
    <mxGraphModel dx="784" dy="379" grid="1" gridSize="10" guides="1" tooltips="1" connect="1" arrows="1" fold="1" page="1" pageScale="1" pageWidth="827" pageHeight="1169" math="0" shadow="0">
      <root>
        <mxCell id="0" />
        <mxCell id="1" parent="0" />
        <mxCell id="IRHucIBJhyLnKCHNsG0P-1" value="&lt;font face=&quot;computer modern&quot; style=&quot;font-size: 11px;&quot; data-font-src=&quot;https://fonts.googleapis.com/css?family=computer+modern&quot;&gt;Maître I2C&lt;/font&gt;" style="rounded=1;whiteSpace=wrap;html=1;" parent="1" vertex="1">
          <mxGeometry x="230.1" y="350" width="90" height="41" as="geometry" />
        </mxCell>
        <mxCell id="IRHucIBJhyLnKCHNsG0P-4" value="" style="rounded=0;whiteSpace=wrap;html=1;" parent="1" vertex="1">
          <mxGeometry x="460" y="100" width="100" height="290" as="geometry" />
        </mxCell>
        <mxCell id="IRHucIBJhyLnKCHNsG0P-5" value="&lt;font face=&quot;computer modern&quot; style=&quot;font-size: 11px;&quot; data-font-src=&quot;https://fonts.googleapis.com/css?family=computer+modern&quot;&gt;Chargeur de&lt;br&gt;démarrage&lt;br&gt;&lt;/font&gt;" style="rounded=0;whiteSpace=wrap;html=1;fillColor=#f5f5f5;fontColor=#333333;strokeColor=#666666;" parent="1" vertex="1">
          <mxGeometry x="460" y="340" width="100" height="50" as="geometry" />
        </mxCell>
        <mxCell id="IRHucIBJhyLnKCHNsG0P-6" value="" style="rounded=0;whiteSpace=wrap;html=1;fillColor=#f5f5f5;fontColor=#333333;strokeColor=#666666;" parent="1" vertex="1">
          <mxGeometry x="460" y="310" width="100" height="30" as="geometry" />
        </mxCell>
        <mxCell id="IRHucIBJhyLnKCHNsG0P-7" value="" style="rounded=0;whiteSpace=wrap;html=1;fillColor=#f5f5f5;fontColor=#333333;strokeColor=#666666;" parent="1" vertex="1">
          <mxGeometry x="460" y="250" width="100" height="60" as="geometry" />
        </mxCell>
        <mxCell id="IRHucIBJhyLnKCHNsG0P-10" value="" style="endArrow=classic;html=1;rounded=0;exitX=1;exitY=0.5;exitDx=0;exitDy=0;entryX=-0.001;entryY=0.66;entryDx=0;entryDy=0;entryPerimeter=0;" parent="1" source="IRHucIBJhyLnKCHNsG0P-1" edge="1">
          <mxGeometry width="50" height="50" relative="1" as="geometry">
            <mxPoint x="370.1" y="351" as="sourcePoint" />
            <mxPoint x="460.0000000000001" y="370.6" as="targetPoint" />
          </mxGeometry>
        </mxCell>
        <mxCell id="IRHucIBJhyLnKCHNsG0P-18" value="&lt;pre style=&quot;border-color: var(--border-color); line-height: 11px; font-size: 11px;&quot;&gt;&lt;font data-font-src=&quot;https://fonts.googleapis.com/css?family=computer+modern&quot; face=&quot;computer modern&quot;&gt;&lt;font style=&quot;border-color: var(--border-color);&quot; data-font-src=&quot;https://fonts.googleapis.com/css?family=asap&quot;&gt;Ecriture de chaque&lt;br&gt;morceau du nouveau &lt;span style=&quot;white-space: normal;&quot;&gt;micrologiciel sur le micrologiciel actuel depuis le chargeur de démarrage&lt;/span&gt;&lt;/font&gt;&lt;/font&gt;&lt;/pre&gt;" style="text;html=1;strokeColor=none;fillColor=none;align=left;verticalAlign=middle;whiteSpace=wrap;rounded=0;" parent="1" vertex="1">
          <mxGeometry x="270" y="270" width="120" height="50" as="geometry" />
        </mxCell>
        <mxCell id="IRHucIBJhyLnKCHNsG0P-19" value="&lt;pre style=&quot;border-color: var(--border-color); line-height: 11px;&quot;&gt;&lt;font style=&quot;&quot; face=&quot;computer modern&quot;&gt;&lt;span style=&quot;font-size: 11px;&quot;&gt;Schéma mémoire&lt;br/&gt;du microcontrôleur &lt;/span&gt;&lt;/font&gt;&lt;/pre&gt;" style="text;html=1;strokeColor=none;fillColor=none;align=center;verticalAlign=middle;whiteSpace=wrap;rounded=0;" parent="1" vertex="1">
          <mxGeometry x="460" y="70" width="100" height="30" as="geometry" />
        </mxCell>
        <mxCell id="dITgritqWHBolw29e6AS-3" value="" style="endArrow=classic;html=1;rounded=0;entryX=-0.005;entryY=0.574;entryDx=0;entryDy=0;exitX=0;exitY=0.5;exitDx=0;exitDy=0;edgeStyle=orthogonalEdgeStyle;curved=1;entryPerimeter=0;" edge="1" parent="1" target="IRHucIBJhyLnKCHNsG0P-7">
          <mxGeometry width="50" height="50" relative="1" as="geometry">
            <mxPoint x="460" y="364.72" as="sourcePoint" />
            <mxPoint x="460" y="287.22" as="targetPoint" />
            <Array as="points">
              <mxPoint x="440" y="365" />
              <mxPoint x="440" y="284" />
            </Array>
          </mxGeometry>
        </mxCell>
        <mxCell id="dITgritqWHBolw29e6AS-6" value="" style="endArrow=classic;html=1;rounded=0;entryX=0;entryY=0.25;entryDx=0;entryDy=0;exitX=0;exitY=0.5;exitDx=0;exitDy=0;edgeStyle=orthogonalEdgeStyle;curved=1;" edge="1" parent="1">
          <mxGeometry width="50" height="50" relative="1" as="geometry">
            <mxPoint x="460" y="364.72" as="sourcePoint" />
            <mxPoint x="460" y="272.22" as="targetPoint" />
            <Array as="points">
              <mxPoint x="440" y="364.72" />
              <mxPoint x="440" y="272.72" />
            </Array>
          </mxGeometry>
        </mxCell>
        <mxCell id="dITgritqWHBolw29e6AS-7" value="" style="endArrow=classic;html=1;rounded=0;entryX=-0.004;entryY=0.896;entryDx=0;entryDy=0;exitX=0;exitY=0.5;exitDx=0;exitDy=0;edgeStyle=orthogonalEdgeStyle;curved=1;entryPerimeter=0;" edge="1" parent="1">
          <mxGeometry width="50" height="50" relative="1" as="geometry">
            <mxPoint x="460" y="364.72" as="sourcePoint" />
            <mxPoint x="459.5999999999999" y="258.48" as="targetPoint" />
            <Array as="points">
              <mxPoint x="440" y="364.72" />
              <mxPoint x="440" y="258.72" />
              <mxPoint x="460" y="258.72" />
            </Array>
          </mxGeometry>
        </mxCell>
        <mxCell id="dITgritqWHBolw29e6AS-8" value="" style="endArrow=classic;html=1;rounded=0;entryX=0;entryY=0.75;entryDx=0;entryDy=0;exitX=0;exitY=0.5;exitDx=0;exitDy=0;edgeStyle=orthogonalEdgeStyle;curved=1;" edge="1" parent="1" target="IRHucIBJhyLnKCHNsG0P-6">
          <mxGeometry width="50" height="50" relative="1" as="geometry">
            <mxPoint x="460" y="364.72" as="sourcePoint" />
            <mxPoint x="459.9000000000001" y="246.48000000000005" as="targetPoint" />
            <Array as="points">
              <mxPoint x="440" y="365" />
              <mxPoint x="440" y="333" />
              <mxPoint x="460" y="333" />
            </Array>
          </mxGeometry>
        </mxCell>
        <mxCell id="dITgritqWHBolw29e6AS-9" value="" style="endArrow=classic;html=1;rounded=0;edgeStyle=orthogonalEdgeStyle;curved=1;entryX=-0.002;entryY=0.416;entryDx=0;entryDy=0;entryPerimeter=0;" edge="1" parent="1" target="IRHucIBJhyLnKCHNsG0P-6">
          <mxGeometry width="50" height="50" relative="1" as="geometry">
            <mxPoint x="460" y="364.72" as="sourcePoint" />
            <mxPoint x="460" y="320" as="targetPoint" />
            <Array as="points">
              <mxPoint x="440" y="365" />
              <mxPoint x="440" y="322" />
            </Array>
          </mxGeometry>
        </mxCell>
        <mxCell id="dITgritqWHBolw29e6AS-10" value="" style="endArrow=classic;html=1;rounded=0;edgeStyle=orthogonalEdgeStyle;curved=1;entryX=0;entryY=1;entryDx=0;entryDy=0;" edge="1" parent="1" target="IRHucIBJhyLnKCHNsG0P-7">
          <mxGeometry width="50" height="50" relative="1" as="geometry">
            <mxPoint x="460" y="364.72" as="sourcePoint" />
            <mxPoint x="459.5999999999999" y="222.05999999999997" as="targetPoint" />
            <Array as="points">
              <mxPoint x="440" y="365" />
              <mxPoint x="440" y="310" />
            </Array>
          </mxGeometry>
        </mxCell>
        <mxCell id="dITgritqWHBolw29e6AS-11" value="" style="endArrow=classic;html=1;rounded=0;edgeStyle=orthogonalEdgeStyle;curved=1;exitX=0;exitY=0.5;exitDx=0;exitDy=0;entryX=-0.002;entryY=0.798;entryDx=0;entryDy=0;entryPerimeter=0;" edge="1" parent="1" target="IRHucIBJhyLnKCHNsG0P-7">
          <mxGeometry width="50" height="50" relative="1" as="geometry">
            <mxPoint x="460" y="364.72" as="sourcePoint" />
            <mxPoint x="460" y="300" as="targetPoint" />
            <Array as="points">
              <mxPoint x="440" y="365" />
              <mxPoint x="440" y="298" />
            </Array>
          </mxGeometry>
        </mxCell>
        <mxCell id="dITgritqWHBolw29e6AS-13" value="&lt;pre style=&quot;border-color: var(--border-color); line-height: 11px; font-size: 11px;&quot;&gt;&lt;font face=&quot;computer modern&quot;&gt;Envoi de chaque morceau&lt;br&gt;successivement&lt;/font&gt;&lt;/pre&gt;" style="text;html=1;strokeColor=none;fillColor=none;align=left;verticalAlign=middle;whiteSpace=wrap;rounded=0;" vertex="1" parent="1">
          <mxGeometry x="325.1" y="361" width="120" height="50" as="geometry" />
        </mxCell>
        <mxCell id="dITgritqWHBolw29e6AS-15" value="&lt;font style=&quot;font-size: 11px;&quot; data-font-src=&quot;https://fonts.googleapis.com/css?family=computer+modern&quot; face=&quot;computer modern&quot;&gt;Nouveau micrologiciel&lt;/font&gt;" style="text;html=1;strokeColor=none;fillColor=none;align=right;verticalAlign=middle;whiteSpace=wrap;rounded=0;" vertex="1" parent="1">
          <mxGeometry x="498" y="278" width="60" height="30" as="geometry" />
        </mxCell>
        <mxCell id="dITgritqWHBolw29e6AS-16" value="" style="endArrow=none;dashed=1;html=1;dashPattern=1 3;strokeWidth=2;rounded=0;entryX=0.792;entryY=0.017;entryDx=0;entryDy=0;exitX=0.679;exitY=-0.064;exitDx=0;exitDy=0;exitPerimeter=0;entryPerimeter=0;" edge="1" parent="1" source="dITgritqWHBolw29e6AS-18" target="IRHucIBJhyLnKCHNsG0P-7">
          <mxGeometry width="50" height="50" relative="1" as="geometry">
            <mxPoint x="460" y="310" as="sourcePoint" />
            <mxPoint x="510" y="260" as="targetPoint" />
          </mxGeometry>
        </mxCell>
        <mxCell id="dITgritqWHBolw29e6AS-17" value="&lt;font style=&quot;font-size: 11px;&quot; data-font-src=&quot;https://fonts.googleapis.com/css?family=computer+modern&quot; face=&quot;computer modern&quot;&gt;Micrologiciel&lt;br&gt;&lt;div style=&quot;&quot;&gt;&lt;span style=&quot;background-color: initial;&quot;&gt;courant&lt;/span&gt;&lt;/div&gt;&lt;/font&gt;" style="text;html=1;strokeColor=none;fillColor=none;align=left;verticalAlign=middle;whiteSpace=wrap;rounded=0;" vertex="1" parent="1">
          <mxGeometry x="463" y="252" width="60" height="30" as="geometry" />
        </mxCell>
        <mxCell id="dITgritqWHBolw29e6AS-18" value="&lt;font face=&quot;computer modern&quot;&gt;&lt;span style=&quot;font-size: 11px;&quot;&gt;Entête courante&lt;/span&gt;&lt;/font&gt;" style="text;html=1;strokeColor=none;fillColor=none;align=left;verticalAlign=middle;whiteSpace=wrap;rounded=0;" vertex="1" parent="1">
          <mxGeometry x="463" y="310" width="37" height="30" as="geometry" />
        </mxCell>
        <mxCell id="dITgritqWHBolw29e6AS-19" value="&lt;font face=&quot;computer modern&quot;&gt;&lt;span style=&quot;font-size: 11px;&quot;&gt;Nouvel entête&lt;/span&gt;&lt;/font&gt;" style="text;html=1;strokeColor=none;fillColor=none;align=right;verticalAlign=middle;whiteSpace=wrap;rounded=0;" vertex="1" parent="1">
          <mxGeometry x="520" y="308" width="38" height="30" as="geometry" />
        </mxCell>
        <mxCell id="dITgritqWHBolw29e6AS-20" value="" style="endArrow=none;dashed=1;html=1;dashPattern=1 3;strokeWidth=2;rounded=0;entryX=0.415;entryY=1.089;entryDx=0;entryDy=0;entryPerimeter=0;exitX=1;exitY=1;exitDx=0;exitDy=0;" edge="1" parent="1" source="dITgritqWHBolw29e6AS-18" target="dITgritqWHBolw29e6AS-15">
          <mxGeometry width="50" height="50" relative="1" as="geometry">
            <mxPoint x="503" y="340" as="sourcePoint" />
            <mxPoint x="603" y="280" as="targetPoint" />
          </mxGeometry>
        </mxCell>
      </root>
    </mxGraphModel>
  </diagram>
</mxfile>
